<?xml version="1.0" encoding="UTF-8" standalone="no"?>
<svg
   viewBox="0 0 100 100"
   version="1.1"
   id="svg8"
   sodipodi:docname="icon.svg"
   inkscape:export-filename="icon@2x.png"
   inkscape:export-xdpi="491.51999"
   inkscape:export-ydpi="491.51999"
   inkscape:version="1.4 (e7c3feb1, 2024-10-09)"
   xmlns:inkscape="http://www.inkscape.org/namespaces/inkscape"
   xmlns:sodipodi="http://sodipodi.sourceforge.net/DTD/sodipodi-0.dtd"
   xmlns="http://www.w3.org/2000/svg"
   xmlns:svg="http://www.w3.org/2000/svg">
  <sodipodi:namedview
     id="namedview8"
     pagecolor="#ffffff"
     bordercolor="#000000"
     borderopacity="0.25"
     inkscape:showpageshadow="2"
     inkscape:pageopacity="0.0"
     inkscape:pagecheckerboard="0"
     inkscape:deskcolor="#d1d1d1"
     showgrid="true"
     inkscape:export-bgcolor="#ffffff00"
     inkscape:zoom="4.16"
     inkscape:cx="53.125"
     inkscape:cy="36.778846"
     inkscape:window-width="1472"
     inkscape:window-height="895"
     inkscape:window-x="0"
     inkscape:window-y="33"
     inkscape:window-maximized="1"
     inkscape:current-layer="g12">
    <inkscape:grid
       id="grid8"
       units="px"
       originx="0"
       originy="0"
       spacingx="1"
       spacingy="1"
       empcolor="#0099e5"
       empopacity="0.30196078"
       color="#0099e5"
       opacity="0.14901961"
       empspacing="5"
       enabled="true"
       visible="true" />
  </sodipodi:namedview>
  <defs
     id="defs6">
    <linearGradient
       id="rainbow"
       x1="11.255214"
       y1="12.873898"
       x2="46.719362"
       y2="12.873898"
       gradientTransform="matrix(1.5595337,0,0,0.64121731,-1.7927679,0)"
       gradientUnits="userSpaceOnUse">
      <stop
         offset="0.08396947"
         stop-color="white"
         id="stop1" />
      <stop
         offset="0.22290076"
         stop-color="#FF0000"
         id="stop2" />
      <stop
         offset="0.48905849"
         stop-color="#FFFF00"
         id="stop3"
         style="stop-color:#ffff00;stop-opacity:1;" />
      <stop
         offset="0.55470735"
         stop-color="#FFFF00"
         id="stop11"
         style="stop-color:#e9ff00;stop-opacity:1;" />
      <stop
         offset="0.73486006"
         stop-color="#00FF00"
         id="stop4" />
      <stop
         offset="0.89822882"
         stop-color="#0000FF"
         id="stop5" />
      <stop
         offset="100%"
         stop-color="#4B0082"
         id="stop6" />
    </linearGradient>
  </defs>
  <rect
     style="fill:#000000;fill-opacity:1;stroke:#000000;stroke-width:0.893;stroke-dasharray:none;stroke-opacity:1"
     id="rect11"
     width="76.829872"
     height="87.53846"
     x="-90.946297"
     y="61.943466"
     rx="1.354895" />
  <g
     id="g12"
     transform="matrix(1.2067716,0,0,1.2067716,-8.243647,-3.8455144)">
    <g
       id="g11"
       transform="translate(-1.7927679)">
      <rect
         x="42.336044"
         y="74.281647"
         width="15.682448"
         height="3.259613"
         rx="1.354895"
         fill="#888888"
         id="rect6"
         style="fill:#000000;fill-opacity:1;stroke:#ffffff;stroke-width:0.293;stroke-dasharray:none;stroke-opacity:1" />
      <rect
         x="43.867111"
         y="79.275482"
         width="12.620314"
         height="3.5"
         rx="1.4303023"
         fill="#888888"
         id="rect7"
         style="fill:#000000;fill-opacity:1;stroke:#ffffff;stroke-width:0.417;stroke-dasharray:none;stroke-opacity:1" />
    </g>
    <path
       fill="#fff9c4"
       stroke="#555555"
       stroke-width="2.02425"
       d="m 48.233851,14.537073 c -12.047499,0.07653 -20.906675,9.281017 -20.935455,21.164352 -0.03926,16.209848 12.462136,13.560551 12.516407,30.583676 0.01459,4.579384 2.569842,5.554487 3.550201,5.554487 h 9.737694 c 0.980361,0 3.484352,-0.568201 3.550199,-5.554487 0.14306,-10.833203 5.50626,-13.603787 9.269764,-18.890643 1.947316,-2.735529 3.466355,-6.144722 3.612392,-11.693033 C 69.745009,27.724773 65.374752,20.9664 59.020578,17.35425 55.818141,15.533765 52.111774,14.512436 48.233851,14.537073 Z"
       id="path6-7"
       sodipodi:nodetypes="ssszzsssss"
       style="fill:#d9bf00;fill-opacity:1;stroke:#ffffff;stroke-opacity:1" />
    <path
       fill="#fff9c4"
       stroke="#555555"
       stroke-width="2"
       d="M 48.207236,14.759615 C 36.330091,14.835407 27.596186,23.949586 27.567813,35.716346 27.529111,51.767179 39.853731,49.14387 39.907236,66 c 0.01439,4.534462 2.533502,5.5 3.5,5.5 h 9.6 c 0.966499,0 3.435084,-0.562628 3.5,-5.5 0.141036,-10.726929 5.428399,-13.470334 9.138688,-18.705327 1.91978,-2.708693 3.417339,-6.084444 3.561312,-11.578327 0.206986,-7.898401 -4.101473,-14.590475 -10.365799,-18.167191 -3.157155,-1.802627 -6.811112,-2.813936 -10.634201,-2.78954 z"
       id="path6"
       sodipodi:nodetypes="ssszzsssss"
       style="fill:#fff051;fill-opacity:1;stroke:#000000;stroke-opacity:1" />
    <path
       d="M 17.971342,24.516132 C 26.130313,8.6641497 37.540068,6.1665861 48.207236,6.2549664 c 11.659943,0.018889 23.455779,9.2824286 23.4493,23.3303406 l -0.317308,-0.03846 C 68.265177,20.998381 60.858808,12.272981 48.207236,12.399038 38.726912,12.337347 28.426909,18.525165 25.199964,30.995192 Z"
       fill="url(#rainbow)"
       id="path8"
       sodipodi:nodetypes="ccccccc"
       style="fill:url(#rainbow)" />
  </g>
</svg>
